<svg xmlns="http://www.w3.org/2000/svg" version="1.1" xmlns:xlink="http://www.w3.org/1999/xlink" xmlns:svgjs="http://svgjs.dev/svgjs" width="1000" height="1125" viewBox="0 0 1000 1125"><g transform="matrix(1,0,0,1,0,0)"><svg viewBox="0 0 320 360" data-background-color="#ffffff" preserveAspectRatio="xMidYMid meet" height="1125" width="1000" xmlns="http://www.w3.org/2000/svg" xmlns:xlink="http://www.w3.org/1999/xlink"><g id="tight-bounds" transform="matrix(1,0,0,1,0,0)"><svg viewBox="0 0 320 360" height="360" width="320"><g><svg></svg></g><g><svg viewBox="0 0 320 360" height="360" width="320"><g><path xmlns="http://www.w3.org/2000/svg" d="M297.491 100.645c-12.426-21.51-112.674-79.355-137.491-79.355-24.817 0-125.028 57.845-137.491 79.355-11.591 20.02-11.591 138.726 0 158.746 12.463 21.474 112.674 79.319 137.491 79.319 24.817 0 125.064-57.845 137.491-79.355 11.591-20.02 11.591-138.69 0-158.71zM309.481 93.705c-14.461-24.998-119.469-86.295-149.481-86.295-30.012 0-135.02 61.297-149.481 86.295-14.025 24.199-14.025 148.391 0 172.59 14.461 24.998 119.469 86.295 149.481 86.295 30.012 0 135.02-61.297 149.481-86.259 14.025-24.235 14.025-148.427 0-172.626zM300.906 261.353c-12.753 22.055-115.472 81.317-140.906 81.318-25.434 0-128.153-59.298-140.906-81.354-11.881-20.529-11.881-142.178 0-162.707 12.753-22.019 115.472-81.281 140.906-81.281 25.434 0 128.153 59.298 140.906 81.318 11.881 20.529 11.881 142.178 0 162.706z" fill="#ee3e38" fill-rule="nonzero" stroke="none" stroke-width="1" stroke-linecap="butt" stroke-linejoin="miter" stroke-miterlimit="10" stroke-dasharray="" stroke-dashoffset="0" font-family="none" font-weight="none" font-size="none" text-anchor="none" style="mix-blend-mode: normal" data-fill-palette-color="tertiary"></path></g><g transform="matrix(1,0,0,1,79.95270886075949,90)"><svg viewBox="0 0 160.09458227848103 180" height="180" width="160.09458227848103"><g><svg viewBox="0 0 160.09458227848103 180" height="180" width="160.09458227848103"><g><svg viewBox="0 0 160.09458227848103 180" height="180" width="160.09458227848103"><g id="textblocktransform"><svg viewBox="0 0 160.09458227848103 180" height="180" width="160.09458227848103" id="textblock"><g><svg viewBox="0 0 160.09458227848103 180" height="180" width="160.09458227848103"><path d="M159.72 38.607C158.967 19.923 156.822 14.728 156.822 14.728 150.237-4.516 142.018-0.368 134.634 2.397 121.599 2.509 108.616 6.62 95.61 8.824 68.312 9.161 40.78 3.63 13.617 17.27 11.066 21.455-2.647 18.092 0.454 40.998 1.267 50.527 4.232 61.102 4.142 69.846 4.548 71.378 5.113 67.866 5.354 70.07 6.196 76.012 7.574 73.209 8.703 76.722 7.13 86.101 8.259 93.911 9.335 102.095 7.438 104.225 5.007 103.216 3.916 110.278 3.803 115.398 3.193 114.426 2.524 114.202 2.034 114.052 1.048 114.613 1.214 116.22 1.778 121.713-0.645 124.889 0.875 130.27-0.171 136.099 1.598 141.144 1.357 147.459 1.327 148.73 1.492 149.813 1.756 150.112 2.922 151.719 1.222 154.858 1.402 158.258 13.369 181.501 26.352 165.433 38.613 176.12 41.796 168.647 39.403 178.773 40.675 177.204 41.668 175.373 42.391 182.959 43.512 178.661 43.685 177.428 43.422 174.514 44.039 175.074 44.363 175.373 44.649 175.298 44.694 173.579 44.762 171.001 44.167 172.608 44.009 171.263 45.718 164.462 45.296 180.642 46.899 179.969 46.824 177.989 46.357 175.149 47.313 175.522 48.261 172.682 48.292 170.328 49.135 176.718 49.165 178.101 49.315 179.072 49.556 179.745 52.19 172.795 54.809 182.211 57.572 179.072 59.265 175.635 60.891 180.941 62.607 179.633 63.209 178.587 63.819 176.718 64.398 179.857 71.495 180.53 79.059 177.727 85.788 179.969 103.769 175.784 122.983 181.688 141.942 176.158 146.413 174.028 151.057 171.001 155.415 168.572 155.415 168.572 158.945 161.921 158.945 132.026S159.697 105.869 159.81 82.065C159.923 58.262 160.45 57.29 159.697 38.607Z" opacity="1" fill="#ee3e38" data-fill-palette-color="tertiary"></path><g transform="matrix(1,0,0,1,31.584000000000003,19.1)"><svg width="96.92658227848102" viewBox="2.9000000953674316 -35.20000076293945 24.30000114440918 35.54999923706055" height="141.8" data-palette-color="#ffffff"><path d="M15.2 0.35Q11.7 0.35 8.9-0.88 6.1-2.1 4.5-4.35 2.9-6.6 2.9-9.6L2.9-9.6 9-9.6Q9.2-7.35 10.78-5.9 12.35-4.45 15.2-4.45L15.2-4.45Q18.15-4.45 19.8-5.88 21.45-7.3 21.45-9.55L21.45-9.55Q21.45-11.3 20.43-12.4 19.4-13.5 17.88-14.1 16.35-14.7 13.65-15.4L13.65-15.4Q10.25-16.3 8.13-17.23 6-18.15 4.5-20.1 3-22.05 3-25.3L3-25.3Q3-28.3 4.5-30.55 6-32.8 8.7-34 11.4-35.2 14.95-35.2L14.95-35.2Q20-35.2 23.23-32.68 26.45-30.15 26.8-25.75L26.8-25.75 20.5-25.75Q20.35-27.65 18.7-29 17.05-30.35 14.35-30.35L14.35-30.35Q11.9-30.35 10.35-29.1 8.8-27.85 8.8-25.5L8.8-25.5Q8.8-23.9 9.78-22.88 10.75-21.85 12.25-21.25 13.75-20.65 16.35-19.95L16.35-19.95Q19.8-19 21.98-18.05 24.15-17.1 25.68-15.13 27.2-13.15 27.2-9.85L27.2-9.85Q27.2-7.2 25.78-4.85 24.35-2.5 21.63-1.07 18.9 0.35 15.2 0.35L15.2 0.35Z" opacity="1" transform="matrix(1,0,0,1,0,0)" fill="#ffffff" class="wordmark-text-0" data-fill-palette-color="quaternary" id="text-0"></path></svg></g></svg></g></svg></g></svg></g><g></g></svg></g></svg></g></svg></g><defs></defs></svg><rect width="320" height="360" fill="none" stroke="none" visibility="hidden"></rect></g></svg></g></svg>